<svg xmlns="http://www.w3.org/2000/svg" viewBox="0 0 64 64" role="img" aria-label="Ledgix">
  <defs>
    <style>
      .lx-brand-fill { fill: #8C2031; }
    </style>
  </defs>
  <g class="lx-brand-fill">
    <path d="M32 8c8.8 0 16.8 3.6 22.6 9.4-2.8 1.2-5.4 2.9-7.7 5.1-4.8-4.5-11.2-7.2-18.2-7.2-3.4 0-6.6.6-9.6 1.7C21.4 11.8 26.4 8 32 8Z"/>
    <path d="M55.4 22.6c2.2 4.6 3.4 9.8 3.4 15.2 0 2.8-.4 5.5-1.1 8.1-3.2-2.8-7.1-4.9-11.4-6.1 1-2.5 1.5-5.2 1.5-8 0-5.8-2.2-11.1-5.8-15.1 3.8-1.4 7.3-3.4 10.4-5.9Z"/>
    <path d="M32 56c-8.8 0-16.8-3.6-22.6-9.4 2.8-1.2 5.4-2.9 7.7-5.1 4.8 4.5 11.2 7.2 18.2 7.2 3.4 0 6.6-.6 9.6-1.7-4.2 4.6-9.2 8.5-14.9 8.5Z"/>
    <path d="M8.6 41.4c-2.2-4.6-3.4-9.8-3.4-15.2 0-2.8.4-5.5 1.1-8.1 3.2 2.8 7.1 4.9 11.4 6.1-1 2.5-1.5 5.2-1.5 8 0 5.8 2.2 11.1 5.8 15.1-3.8 1.4-7.3 3.4-10.4 5.9Z"/>
    <path d="M32 24c4.4 0 8 3.6 8 8s-3.6 8-8 8-8-3.6-8-8 3.6-8 8-8Z" fill="#fff"/>
  </g>
</svg>
